<svg viewBox="0 0 160 210" xmlns="http://www.w3.org/2000/svg">
  <defs>
    <linearGradient id="fur" x1="0" y1="0" x2="1" y2="1"><stop stop-color="#ead2b5"/><stop offset="1" stop-color="#c79d70"/></linearGradient>
    <linearGradient id="coat" x1="0" y1="0" x2="0" y2="1"><stop stop-color="#ffffff"/><stop offset="1" stop-color="#d9e2ea"/></linearGradient>
    <filter id="soft"><feDropShadow dx="0" dy="7" stdDeviation="5" flood-color="#4b321d" flood-opacity=".24"/></filter>
  </defs>
  <ellipse cx="80" cy="196" rx="48" ry="9" fill="#3f2b1a" opacity=".16"/>
  <g filter="url(#soft)">
    <path d="M48 119q-8 30-1 67h27l6-38 6 38h27q8-37-1-67z" fill="#4d4a47"/>
    <rect x="43" y="174" width="34" height="20" rx="9" fill="#185fa8"/>
    <rect x="83" y="174" width="34" height="20" rx="9" fill="#185fa8"/>
    <path d="M38 94q8-19 42-21 34 2 42 21v67H38z" fill="url(#coat)"/>
    <path d="M80 76v85" stroke="#aab5be" stroke-width="3"/>
    <circle cx="80" cy="101" r="3" fill="#8a969f"/><circle cx="80" cy="121" r="3" fill="#8a969f"/><circle cx="80" cy="141" r="3" fill="#8a969f"/>
    <rect x="91" y="92" width="21" height="17" rx="3" fill="#cce4f8" stroke="#6e8ba0" stroke-width="2"/>
    <rect x="95" y="85" width="3" height="13" rx="1.5" fill="#e84444"/><rect x="101" y="84" width="3" height="14" rx="1.5" fill="#236ccc"/>
    <path d="M37 106q-16 12-15 34 9 8 18 1l11-31z" fill="url(#fur)"/>
    <path d="M123 106q16 12 15 34-9 8-18 1l-11-31z" fill="url(#fur)"/>
    <rect x="19" y="111" width="33" height="47" rx="4" fill="#2f72af"/>
    <path d="M26 121h19M26 130h19M26 139h13" stroke="#dceeff" stroke-width="2"/>
    <ellipse cx="42" cy="58" rx="23" ry="31" fill="url(#fur)"/>
    <ellipse cx="118" cy="58" rx="23" ry="31" fill="url(#fur)"/>
    <ellipse cx="80" cy="61" rx="43" ry="45" fill="url(#fur)"/>
    <ellipse cx="80" cy="77" rx="20" ry="15" fill="#e6c8a7"/>
    <ellipse cx="80" cy="72" rx="9" ry="7" fill="#785038"/>
    <ellipse cx="65" cy="57" rx="5" ry="7" fill="#171c22"/>
    <ellipse cx="95" cy="57" rx="5" ry="7" fill="#171c22"/>
    <circle cx="67" cy="54" r="1.8" fill="#fff"/><circle cx="97" cy="54" r="1.8" fill="#fff"/>
    <path d="M66 85q14 6 28 0" fill="none" stroke="#6f4b3c" stroke-width="3" stroke-linecap="round"/>
    <path d="M49 31q31-19 62 0" fill="none" stroke="#2c3035" stroke-width="7" stroke-linecap="round"/>
    <circle cx="60" cy="31" r="15" fill="#9fd1e8" opacity=".55" stroke="#30343a" stroke-width="5"/>
    <circle cx="100" cy="31" r="15" fill="#9fd1e8" opacity=".55" stroke="#30343a" stroke-width="5"/>
    <path d="M75 31h10" stroke="#30343a" stroke-width="5"/>
    <path d="M58 61q5 4 11 0M91 61q5 4 11 0" fill="none" stroke="#604536" stroke-width="2.3" stroke-linecap="round"/>
  </g>
</svg>
