<svg xmlns="http://www.w3.org/2000/svg" viewBox="0 0 240 260" role="img" aria-labelledby="title desc">
  <title id="title">Doctor Winnie</title>
  <desc id="desc">A cheeky kid-safe Doctor Winnie character.</desc>
  <defs>
    <filter id="softShadow" x="-30%" y="-20%" width="160%" height="150%">
      <feDropShadow dx="0" dy="10" stdDeviation="8" flood-color="#5c3a11" flood-opacity="0.22"/>
    </filter>
    <linearGradient id="coat" x1="0" x2="0" y1="0" y2="1">
      <stop stop-color="#ffffff"/>
      <stop offset="1" stop-color="#d9eef4"/>
    </linearGradient>
  </defs>
  <ellipse cx="120" cy="238" rx="58" ry="12" fill="#5b3a10" opacity="0.16"/>
  <g filter="url(#softShadow)">
    <circle cx="72" cy="88" r="31" fill="#b87935"/>
    <circle cx="168" cy="88" r="31" fill="#b87935"/>
    <circle cx="72" cy="88" r="18" fill="#f6c783"/>
    <circle cx="168" cy="88" r="18" fill="#f6c783"/>
    <ellipse cx="120" cy="101" rx="61" ry="56" fill="#c98a3f"/>
    <ellipse cx="120" cy="118" rx="38" ry="27" fill="#f2bd78"/>
    <circle cx="98" cy="101" r="7" fill="#102433"/>
    <circle cx="142" cy="101" r="7" fill="#102433"/>
    <circle cx="98" cy="101" r="14" fill="none" stroke="#263646" stroke-width="5"/>
    <circle cx="142" cy="101" r="14" fill="none" stroke="#263646" stroke-width="5"/>
    <path d="M112 101h16" stroke="#263646" stroke-width="5" stroke-linecap="round"/>
    <path d="M108 122c10 8 22 8 32 0" fill="none" stroke="#604225" stroke-width="5" stroke-linecap="round"/>
    <path d="M90 45c12-26 47-31 62 0-20-9-42-9-62 0z" fill="#5c2f17"/>
    <path d="M69 143h102c10 0 18 8 18 18v61H51v-61c0-10 8-18 18-18z" fill="url(#coat)"/>
    <path d="M95 144l25 48 25-48" fill="none" stroke="#69a8bf" stroke-width="8" stroke-linecap="round" stroke-linejoin="round"/>
    <rect x="66" y="158" width="32" height="48" rx="8" fill="#ffffff" opacity="0.92"/>
    <rect x="142" y="158" width="32" height="48" rx="8" fill="#ffffff" opacity="0.92"/>
    <rect x="67" y="210" width="38" height="31" rx="12" fill="#6b4520"/>
    <rect x="135" y="210" width="38" height="31" rx="12" fill="#6b4520"/>
    <circle cx="178" cy="160" r="21" fill="#ffe66d" stroke="#fff" stroke-width="5"/>
    <text x="178" y="169" text-anchor="middle" font-family="Arial, sans-serif" font-size="24" font-weight="900" fill="#ad5e10">!</text>
  </g>
</svg>
