<svg xmlns="http://www.w3.org/2000/svg" viewBox="0 0 240 260" role="img" aria-labelledby="title desc">
  <title id="title">Judy</title>
  <desc id="desc">A sweet plush rabbit Super Zoos hero character.</desc>
  <defs>
    <filter id="softShadow" x="-30%" y="-20%" width="160%" height="150%">
      <feDropShadow dx="0" dy="10" stdDeviation="8" flood-color="#24506d" flood-opacity="0.2"/>
    </filter>
    <linearGradient id="suitPink" x1="0" x2="0" y1="0" y2="1">
      <stop stop-color="#ff9ed1"/>
      <stop offset="1" stop-color="#e23e8d"/>
    </linearGradient>
  </defs>
  <ellipse cx="120" cy="238" rx="58" ry="12" fill="#184b35" opacity="0.16"/>
  <g filter="url(#softShadow)">
    <path d="M83 93C54 41 62 9 82 7c20-2 28 38 25 85z" fill="#f7f2ee"/>
    <path d="M157 93c29-52 21-84 1-86-20-2-28 38-25 85z" fill="#f7f2ee"/>
    <path d="M84 79C70 42 74 19 84 18c12-1 18 28 15 63z" fill="#ffc7d9" opacity="0.9"/>
    <path d="M156 79c14-37 10-60 0-61-12-1-18 28-15 63z" fill="#ffc7d9" opacity="0.9"/>
    <ellipse cx="120" cy="101" rx="58" ry="52" fill="#fff8f2"/>
    <path d="M141 50c12-12 31-6 31 9 0 21-31 22-51 3 5-2 14-6 20-12z" fill="#ff78b9"/>
    <circle cx="100" cy="100" r="6" fill="#102433"/>
    <circle cx="140" cy="100" r="6" fill="#102433"/>
    <ellipse cx="120" cy="115" rx="8" ry="6" fill="#ef7ea9"/>
    <path d="M105 124c10 10 20 10 30 0" fill="none" stroke="#6d5a55" stroke-width="5" stroke-linecap="round"/>
    <rect x="72" y="142" width="96" height="74" rx="30" fill="url(#suitPink)"/>
    <circle cx="120" cy="175" r="24" fill="#fff5ba" stroke="#fff" stroke-width="6"/>
    <text x="120" y="184" text-anchor="middle" font-family="Arial, sans-serif" font-size="34" font-weight="900" fill="#d52b83">J</text>
    <rect x="47" y="151" width="27" height="61" rx="14" fill="#fff8f2" transform="rotate(15 60 181)"/>
    <rect x="166" y="151" width="27" height="61" rx="14" fill="#fff8f2" transform="rotate(-15 180 181)"/>
    <rect x="84" y="208" width="28" height="34" rx="12" fill="#c91d75"/>
    <rect x="128" y="208" width="28" height="34" rx="12" fill="#c91d75"/>
    <path d="M154 148c34 13 49 38 47 67-31-8-54-22-73-47z" fill="#ff73b5" opacity="0.85"/>
  </g>
</svg>
