<svg viewBox="0 0 160 220" xmlns="http://www.w3.org/2000/svg">
  <defs>
    <linearGradient id="pinkfur" x1="0" y1="0" x2="1" y2="1"><stop stop-color="#ffd8e8"/><stop offset="1" stop-color="#e89cbb"/></linearGradient>
    <linearGradient id="suit" x1="0" y1="0" x2="0" y2="1"><stop stop-color="#ff63ad"/><stop offset="1" stop-color="#c72c76"/></linearGradient>
    <linearGradient id="hair" x1="0" y1="0" x2="1" y2="1"><stop stop-color="#9c492b"/><stop offset="1" stop-color="#5b2416"/></linearGradient>
    <filter id="soft"><feDropShadow dx="0" dy="7" stdDeviation="5" flood-color="#6f244c" flood-opacity=".2"/></filter>
  </defs>
  <ellipse cx="80" cy="205" rx="52" ry="10" fill="#194d39" opacity=".17"/>
  <g filter="url(#soft)">
    <path d="M51 126q-12 22-5 62h28l6-39 6 39h28q7-39-5-62z" fill="#9f2e61"/>
    <rect x="42" y="178" width="37" height="23" rx="11" fill="#d84288"/>
    <rect x="81" y="178" width="37" height="23" rx="11" fill="#d84288"/>
    <path d="M43 187h35M82 187h35" stroke="#ffe8f3" stroke-width="3"/>
    <path d="M42 108q-16 14-16 34 10 8 20 0l12-29z" fill="url(#pinkfur)"/>
    <path d="M118 108q16 14 16 34-10 8-20 0l-12-29z" fill="url(#pinkfur)"/>
    <path d="M45 96q8-19 35-21 27 2 35 21v54H45z" fill="url(#suit)"/>
    <path d="M52 101h56" stroke="#ffb5d6" stroke-width="3" opacity=".9"/>
    <circle cx="80" cy="121" r="15" fill="#fff4f9"/>
    <text x="80" y="127" text-anchor="middle" font-size="20" font-weight="900" fill="#d53680">J</text>
    <path d="M56 27Q48 4 62 0q13 2 12 35" fill="url(#pinkfur)"/>
    <path d="M104 27Q112 4 98 0q-13 2-12 35" fill="url(#pinkfur)"/>
    <path d="M59 25Q54 7 62 7q7 2 6 24" fill="#f3a8c1"/>
    <path d="M101 25Q106 7 98 7q-7 2-6 24" fill="#f3a8c1"/>
    <ellipse cx="80" cy="68" rx="42" ry="43" fill="url(#pinkfur)"/>
    <path d="M39 58q4-31 31-39 26-6 50 16-7 2-12 8 12 3 18 14-10-2-19 2 2 33-13 52-7-17-5-37-16 8-33 1-2 18-1 31-14-17-16-48z" fill="url(#hair)"/>
    <path d="M51 48q27-28 58-7" fill="none" stroke="#c26b45" stroke-width="5" stroke-linecap="round" opacity=".75"/>
    <ellipse cx="65" cy="68" rx="6" ry="8" fill="#181c25"/>
    <ellipse cx="95" cy="68" rx="6" ry="8" fill="#181c25"/>
    <circle cx="67" cy="65" r="2" fill="#fff"/><circle cx="97" cy="65" r="2" fill="#fff"/>
    <ellipse cx="80" cy="82" rx="6" ry="4" fill="#c86882"/>
    <path d="M69 90q11 10 22 0" fill="none" stroke="#7d4d5c" stroke-width="3" stroke-linecap="round"/>
    <circle cx="54" cy="85" r="5" fill="#f47dac" opacity=".34"/><circle cx="106" cy="85" r="5" fill="#f47dac" opacity=".34"/>
  </g>
</svg>
