<svg xmlns="http://www.w3.org/2000/svg" viewBox="0 0 240 260" role="img" aria-labelledby="title desc">
  <title id="title">Peter</title>
  <desc id="desc">A friendly plush Super Zoos hero character.</desc>
  <defs>
    <filter id="softShadow" x="-30%" y="-20%" width="160%" height="150%">
      <feDropShadow dx="0" dy="10" stdDeviation="8" flood-color="#24506d" flood-opacity="0.22"/>
    </filter>
    <linearGradient id="bodyBlue" x1="0" x2="0" y1="0" y2="1">
      <stop stop-color="#4bb8ff"/>
      <stop offset="1" stop-color="#1267c9"/>
    </linearGradient>
  </defs>
  <ellipse cx="120" cy="238" rx="58" ry="12" fill="#184b35" opacity="0.18"/>
  <g filter="url(#softShadow)">
    <circle cx="70" cy="86" r="37" fill="#cfdce3"/>
    <circle cx="170" cy="86" r="37" fill="#cfdce3"/>
    <circle cx="70" cy="86" r="23" fill="#ffc9cf" opacity="0.85"/>
    <circle cx="170" cy="86" r="23" fill="#ffc9cf" opacity="0.85"/>
    <ellipse cx="120" cy="91" rx="58" ry="55" fill="#dce7ec"/>
    <path d="M112 29c5-15 16-15 19 0 5-11 17-8 17 5 0 16-15 26-29 26-15 0-28-10-28-25 0-13 15-17 21-6z" fill="#8a4a22"/>
    <circle cx="100" cy="91" r="6" fill="#102433"/>
    <circle cx="140" cy="91" r="6" fill="#102433"/>
    <path d="M105 114c12 11 27 11 38 0" fill="none" stroke="#5f5451" stroke-width="5" stroke-linecap="round"/>
    <path d="M120 105c15 0 23 8 21 22-3 23-18 36-20 52" fill="none" stroke="#cfdce3" stroke-width="22" stroke-linecap="round"/>
    <path d="M120 104c12 0 18 7 17 20-2 17-13 30-16 45" fill="none" stroke="#e2ebef" stroke-width="11" stroke-linecap="round" opacity="0.85"/>
    <rect x="73" y="136" width="94" height="74" rx="28" fill="url(#bodyBlue)"/>
    <circle cx="120" cy="170" r="25" fill="#fff3a8" stroke="#fff" stroke-width="6"/>
    <text x="120" y="180" text-anchor="middle" font-family="Arial, sans-serif" font-size="34" font-weight="900" fill="#1267c9">P</text>
    <rect x="47" y="146" width="26" height="66" rx="13" fill="#dce7ec" transform="rotate(16 60 179)"/>
    <rect x="167" y="146" width="26" height="66" rx="13" fill="#dce7ec" transform="rotate(-16 180 179)"/>
    <rect x="83" y="203" width="28" height="38" rx="12" fill="#0d4f98"/>
    <rect x="129" y="203" width="28" height="38" rx="12" fill="#0d4f98"/>
    <path d="M154 145c35 13 49 41 47 72-31-9-54-25-72-50z" fill="#2b9cff" opacity="0.85"/>
  </g>
</svg>
